<?xml version="1.0" encoding="UTF-8" standalone="no"?>
<!-- Created with Inkscape (http://www.inkscape.org/) -->

<svg
   width="43.169331mm"
   height="49.951874mm"
   viewBox="0 0 43.169331 49.951874"
   version="1.1"
   id="svg1"
   inkscape:version="1.4.2 (ebf0e940d0, 2025-05-08)"
   sodipodi:docname="logo.svg"
   xmlns:inkscape="http://www.inkscape.org/namespaces/inkscape"
   xmlns:sodipodi="http://sodipodi.sourceforge.net/DTD/sodipodi-0.dtd"
   xmlns="http://www.w3.org/2000/svg"
   xmlns:svg="http://www.w3.org/2000/svg">
  <sodipodi:namedview
     id="namedview1"
     pagecolor="#ffffff"
     bordercolor="#000000"
     borderopacity="0.25"
     inkscape:showpageshadow="2"
     inkscape:pageopacity="0.0"
     inkscape:pagecheckerboard="0"
     inkscape:deskcolor="#d1d1d1"
     inkscape:document-units="mm"
     inkscape:zoom="4.4195761"
     inkscape:cx="91.750881"
     inkscape:cy="114.37749"
     inkscape:window-width="1920"
     inkscape:window-height="1128"
     inkscape:window-x="0"
     inkscape:window-y="0"
     inkscape:window-maximized="1"
     inkscape:current-layer="g4" />
  <defs
     id="defs1">
    <linearGradient
       id="a"
       x1="50.884998"
       x2="50.638"
       y1="88.200996"
       y2="70.898003"
       gradientTransform="matrix(-0.26458335,0,0,0.26458334,97.653201,0)"
       gradientUnits="userSpaceOnUse">
      <stop
         offset=".267"
         style="stop-color:#82aec0"
         id="stop7" />
      <stop
         offset="1"
         style="stop-color:#82aec0;stop-opacity:0"
         id="stop8" />
    </linearGradient>
    <linearGradient
       id="b"
       x1="98.210999"
       x2="55.400002"
       y1="84.600998"
       y2="84.600998"
       gradientTransform="matrix(-0.26458335,0,0,0.26458334,97.653201,0)"
       gradientUnits="userSpaceOnUse">
      <stop
         offset="0"
         style="stop-color:#2f7889"
         id="stop9" />
      <stop
         offset="1"
         style="stop-color:#82aec0"
         id="stop10" />
    </linearGradient>
    <linearGradient
       id="c"
       x1="57.979"
       x2="15.263"
       y1="84.600998"
       y2="84.600998"
       gradientUnits="userSpaceOnUse"
       gradientTransform="matrix(0.26458335,0,0,0.26458334,53.169332,0)">
      <stop
         offset="0"
         style="stop-color:#2f7889"
         id="stop11" />
      <stop
         offset="1"
         style="stop-color:#82aec0"
         id="stop12" />
    </linearGradient>
    <linearGradient
       id="d"
       x1="10.753"
       x2="10.505"
       y1="88.200996"
       y2="70.898003"
       gradientUnits="userSpaceOnUse"
       gradientTransform="matrix(0.26458335,0,0,0.26458334,53.169332,0)">
      <stop
         offset=".267"
         style="stop-color:#82aec0"
         id="stop13" />
      <stop
         offset="1"
         style="stop-color:#82aec0;stop-opacity:0"
         id="stop14" />
    </linearGradient>
  </defs>
  <g
     inkscape:label="Layer 1"
     inkscape:groupmode="layer"
     id="layer1"
     transform="translate(-91.545828,-118.26875)">
    <g
       id="g46348"
       transform="translate(225.48458,694.37485)"
       style="fill:#cccccc;stroke:#000000">
      <g
         id="g57961"
         transform="rotate(-30,-112.35409,-551.13016)"
         style="fill:#cccccc;stroke:#000000">
        <g
           id="g57911"
           style="fill:#cccccc;stroke:#000000">
          <g
             id="g43251"
             transform="rotate(30,-112.35408,-551.13016)"
             style="fill:#cccccc;stroke:#000000" />
          <g
             id="g78484"
             transform="rotate(30,-112.35409,-551.13016)"
             style="fill:#cccccc;stroke:#000000">
            <g
               id="g78555"
               transform="rotate(-30,-112.35409,-551.13016)"
               style="fill:#cccccc;stroke:#000000">
              <path
                 sodipodi:type="star"
                 style="fill:#cccccc;fill-opacity:1;stroke:#000000;stroke-width:21.7043;stroke-miterlimit:4;stroke-dasharray:none;stroke-opacity:1"
                 id="path4560"
                 sodipodi:sides="6"
                 sodipodi:cx="-5551.2134"
                 sodipodi:cy="-204.52565"
                 sodipodi:r1="1701.6108"
                 sodipodi:r2="1473.6381"
                 sodipodi:arg1="1.0471976"
                 sodipodi:arg2="1.5707963"
                 inkscape:flatsided="true"
                 inkscape:rounded="0"
                 inkscape:randomized="0"
                 inkscape:transform-center-x="1.5731476e-05"
                 inkscape:transform-center-y="7.9344316e-05"
                 transform="matrix(-0.00728526,0.01261844,-0.01259211,-0.00727006,-155.37153,-482.56942)"
                 d="m -4700.408,1269.1126 -1701.6109,-10e-5 -850.8053,-1473.63823 850.8055,-1473.63817 1701.6108,10e-5 850.8054,1473.63823 z" />
            </g>
          </g>
        </g>
      </g>
    </g>
    <g
       id="g4"
       transform="matrix(1.0683942,0,0,1.0683942,90.069571,116.66682)">
      <g
         id="g6"
         transform="matrix(0.36777083,0,0,0.36777083,-58.13602,0.163256)">
        <g
           id="g2"
           transform="translate(0,1.0772006)">
          <path
             d="m 192.27035,88.135486 q 1.74475,0 2.80217,1.216036 1.07505,1.216035 1.07505,3.665729 0,2.414447 -1.07505,3.665729 -1.05742,1.251283 -2.81979,1.251283 -1.09267,0 -1.81524,-0.405345 -0.70495,-0.422969 -1.11029,-0.969303 h -0.10575 q 0.0352,0.299602 0.0705,0.757819 0.0352,0.458216 0.0352,0.793066 v 3.87721 h -1.55089 V 88.311723 h 1.26891 l 0.21148,1.28653 h 0.0705 q 0.42297,-0.616829 1.11029,-1.039798 0.68732,-0.422969 1.83286,-0.422969 z m -0.28197,1.304154 q -1.44515,0 -2.04435,0.81069 -0.58159,0.81069 -0.61683,2.467318 v 0.299603 q 0,1.744746 0.56396,2.696426 0.58158,0.934056 2.13246,0.934056 0.86356,0 1.4099,-0.47584 0.56396,-0.47584 0.82831,-1.28653 0.28198,-0.828314 0.28198,-1.885736 0,-1.62138 -0.63445,-2.590683 -0.61683,-0.969304 -1.92098,-0.969304 z m 8.15976,1.920983 q 0,0.28198 -0.0352,0.740196 -0.0176,0.458216 -0.0352,0.793066 h 0.0705 q 0.10575,-0.140989 0.31723,-0.405345 0.21148,-0.264355 0.42297,-0.528711 0.22911,-0.281979 0.38772,-0.458216 l 3.01365,-3.18989 h 1.81524 l -3.82434,4.035827 4.0887,5.410476 h -1.86811 l -3.27801,-4.405925 -1.07505,0.934056 v 3.471869 h -1.53326 V 84.364015 h 1.53326 z m 11.22631,-3.225137 q 0.93405,0 1.67425,0.352474 0.75782,0.352474 1.28653,1.075046 h 0.0881 l 0.21148,-1.251283 h 1.23366 v 9.604916 q 0,2.026726 -1.0398,3.048901 -1.02217,1.02217 -3.18989,1.02217 -2.07959,0 -3.40137,-0.5992 v -1.427521 q 1.39227,0.740191 3.48949,0.740191 1.21604,0 1.90336,-0.722568 0.70495,-0.704948 0.70495,-1.938607 v -0.370097 q 0,-0.211485 0.0176,-0.599206 0.0176,-0.405345 0.0353,-0.563959 h -0.0705 q -0.95168,1.42752 -2.92554,1.42752 -1.83286,0 -2.87266,-1.28653 -1.02218,-1.28653 -1.02218,-3.595235 0,-2.255833 1.02218,-3.57761 1.0398,-1.339402 2.85504,-1.339402 z m 0.21148,1.304154 q -1.18079,0 -1.83286,0.95168 -0.65208,0.934056 -0.65208,2.678802 0,1.744746 0.63445,2.678802 0.65208,0.916433 1.88574,0.916433 1.42752,0 2.0796,-0.757819 0.65207,-0.775443 0.65207,-2.484942 v -0.370098 q 0,-1.938606 -0.6697,-2.76692 -0.6697,-0.845938 -2.09722,-0.845938 z m 13.42926,5.710079 q 0,1.374648 -1.02218,2.079596 -1.02217,0.704948 -2.7493,0.704948 -0.98692,0 -1.70949,-0.158613 -0.70495,-0.158613 -1.25129,-0.440593 v -1.409896 q 0.56396,0.28198 1.35703,0.528711 0.81069,0.229108 1.639,0.229108 1.18079,0 1.7095,-0.370097 0.52871,-0.387722 0.52871,-1.022175 0,-0.352474 -0.19386,-0.634453 -0.19386,-0.281979 -0.70495,-0.563958 -0.49346,-0.281979 -1.42752,-0.634453 -0.91643,-0.352474 -1.56851,-0.704948 -0.65207,-0.352474 -1.00455,-0.845938 -0.35247,-0.493464 -0.35247,-1.268906 0,-1.198412 0.9693,-1.850489 0.98693,-0.652077 2.57306,-0.652077 0.86356,0 1.60376,0.176237 0.75782,0.158614 1.40989,0.458217 l -0.52871,1.233658 q -0.5992,-0.246731 -1.25128,-0.422968 -0.65208,-0.176237 -1.3394,-0.176237 -0.95168,0 -1.46277,0.317226 -0.49346,0.299603 -0.49346,0.828314 0,0.387722 0.22911,0.669701 0.22911,0.264355 0.75782,0.528711 0.54633,0.246731 1.44514,0.599205 0.89881,0.334851 1.53326,0.687325 0.63446,0.352474 0.96931,0.863561 0.33485,0.493464 0.33485,1.251283 z m 3.08414,-10.380359 q 0.35248,0 0.61683,0.246732 0.28198,0.229108 0.28198,0.740195 0,0.493464 -0.28198,0.740195 -0.26435,0.246732 -0.61683,0.246732 -0.38772,0 -0.65207,-0.246732 -0.26436,-0.246731 -0.26436,-0.740195 0,-0.511087 0.26436,-0.740195 0.26435,-0.246732 0.65207,-0.246732 z m 0.75782,3.542363 v 9.446303 h -1.55088 v -9.446303 z m 6.15067,8.353634 q 0.35247,0 0.72257,-0.05287 0.3701,-0.0705 0.5992,-0.14099 v 1.180788 q -0.24673,0.123366 -0.70494,0.193861 -0.45822,0.08812 -0.88119,0.08812 -0.7402,0 -1.37465,-0.246732 -0.61683,-0.264355 -1.00455,-0.898808 -0.38772,-0.634454 -0.38772,-1.779994 v -5.498594 h -1.3394 V 88.76994 l 1.35702,-0.61683 0.61683,-2.009102 h 0.91643 v 2.167715 h 2.73168 v 1.198412 h -2.73168 v 5.463347 q 0,0.863561 0.40535,1.28653 0.42297,0.405345 1.07505,0.405345 z m 6.85562,-8.529871 q 1.21603,0 2.07959,0.528711 0.88119,0.528711 1.3394,1.498015 0.47584,0.95168 0.47584,2.23821 v 0.934056 h -6.46789 q 0.0352,1.603756 0.81069,2.449694 0.79306,0.828314 2.20296,0.828314 0.89881,0 1.58613,-0.158614 0.70495,-0.176237 1.44514,-0.493463 v 1.357025 q -0.72257,0.317226 -1.42752,0.458216 -0.70494,0.158613 -1.67425,0.158613 -1.3394,0 -2.3792,-0.546335 -1.02217,-0.546334 -1.60375,-1.62138 -0.56396,-1.092669 -0.56396,-2.661178 0,-1.550886 0.51109,-2.661179 0.52871,-1.110293 1.46276,-1.709499 0.95168,-0.599206 2.20297,-0.599206 z m -0.0176,1.268907 q -1.11029,0 -1.76237,0.722571 -0.63445,0.704948 -0.75782,1.973855 h 4.81127 q -0.0176,-1.198412 -0.56396,-1.938607 -0.54633,-0.757819 -1.72712,-0.757819 z"
             id="text6"
             style="font-size:17.6237px;line-height:0.9;font-family:'Noto Sans';-inkscape-font-specification:'Noto Sans';text-align:center;text-anchor:middle;stroke-width:2.9974"
             aria-label="pkgsite" />
        </g>
      </g>
      <g
         id="g3"
         transform="matrix(0.82867995,0,0,0.82867995,-36.508008,7.1495065)">
        <path
           d="m 71.753666,26.667355 12.845521,1.222375 c 1.209146,0.116417 1.518709,-0.558271 1.518709,-1.129771 l -0.01323,-0.693208 -15.798272,-2.227792 c 0,0.791104 0.642938,2.828396 1.447271,2.828396"
           style="fill:#c62828;stroke-width:0.264583"
           id="path1-3" />
        <path
           d="m 72.221979,26.064105 2.021416,0.177271 10.824105,1.045104 c 0.582083,0 1.050396,-0.463021 1.050396,-1.034521 L 85.54375,8.7206669 c 0,-0.5715 -0.470958,-1.0345209 -1.050396,-1.0345209 L 72.221979,6.527271 c -0.804334,0 -1.457855,0.6429375 -1.457855,1.4340417 V 24.630063 c 0,0.791104 0.650875,1.434042 1.457855,1.434042"
           style="fill:#f44336;stroke-width:0.264583"
           id="path2-6" />
        <path
           d="M 68.451666,26.667355 55.606144,27.88973 c -1.209146,0.116417 -1.518708,-0.558271 -1.518708,-1.129771 l 0.01323,-0.693208 15.798272,-2.230438 c 0,0.79375 -0.642938,2.831042 -1.447271,2.831042"
           style="fill:#c62828;stroke-width:0.264583"
           id="path3-7" />
        <path
           d="m 67.983353,26.064105 -2.005541,0.177271 -10.83998,1.04775 c -0.582084,0 -1.050396,-0.463021 -1.050396,-1.034521 L 54.661582,8.7233127 c 0,-0.5715 0.470958,-1.0345208 1.050396,-1.0345208 L 67.983353,6.5299168 c 0.804334,0 1.457855,0.6429376 1.457855,1.4340417 V 24.632709 c 0,0.788458 -0.650875,1.431396 -1.457855,1.431396"
           style="fill:#f44336;stroke-width:0.264583"
           id="path4-5" />
        <path
           d="m 74.00527,22.140334 h -7.799917 l -0.238125,4.108979 2.434167,0.227542 c 0,0 0.521229,1.30175 1.701271,1.30175 1.180042,0 1.701271,-1.30175 1.701271,-1.30175 l 2.434167,-0.227542 z"
           style="fill:#424242;stroke-width:0.264583"
           id="path5-3" />
        <path
           d="m 74.214291,26.572105 -2.267479,-0.195792 m -5.955771,0.195792 2.267479,-0.195792"
           style="fill:none;stroke:#616161;stroke-width:0.661458;stroke-miterlimit:10"
           id="path6-5" />
        <path
           d="M 84.826729,8.6836252 83.768396,7.2284169 70.102666,22.759459 56.436936,7.2284169 55.378603,8.6836252 55.230436,25.974147 c 0,0 2.809875,0.351895 6.564313,-0.0291 3.27025,-0.330729 4.810125,-1.177396 5.902854,-0.957791 1.312334,0.264583 1.550459,1.071562 1.592792,1.209146 0.119063,0.381 0.354542,0.677333 0.812271,0.677333 0.457729,0 0.661458,-0.15875 0.801687,-0.629708 0.04233,-0.137584 0.291042,-0.989542 1.603376,-1.254125 1.092729,-0.219605 2.632604,0.627062 5.902854,0.957791 3.754438,0.381 6.564313,0.0291 6.564313,0.0291 z"
           style="fill:#94c6d6;stroke-width:0.264583"
           id="path7-6" />
        <path
           d="m 83.411208,24.307271 0.04233,-6.982354 h 1.44727 l 0.07408,8.64923 c 0,0 -1.150938,-0.447146 -1.563688,-1.666876"
           style="fill:url(#a);stroke-width:0.264583"
           id="path8-2" />
        <path
           d="m 83.477354,20.23798 -0.06615,4.071937 c 0,0 -3.164417,-0.164041 -8.204729,-1.037166 -3.296709,-0.5715 -5.103813,1.259416 -5.103813,1.259416 l -0.0291,-4.294187 z"
           style="fill:url(#b);stroke-width:0.264583"
           id="path10-9" />
        <path
           d="m 56.727978,20.23798 0.06615,4.071937 c 0,0 3.164416,-0.164041 8.204729,-1.037166 3.296709,-0.5715 5.103813,1.259416 5.103813,1.259416 l -0.0291,-4.294187 z"
           style="fill:url(#c);stroke-width:0.264583"
           id="path12" />
        <path
           d="m 56.794124,24.307271 -0.04233,-6.982354 h -1.449917 l -0.07144,8.64923 c 0,0 1.148292,-0.447146 1.563688,-1.666876"
           style="fill:url(#d);stroke-width:0.264583"
           id="path14" />
        <path
           d="m 83.768396,7.2284169 c 0,0 -7.022042,-1.3202709 -10.104438,-1.4922501 C 70.764124,5.574771 70.168812,7.051146 70.110603,7.2284169 H 70.10002 C 70.039166,7.051146 69.443853,5.5774168 66.54402,5.7361668 63.461624,5.908146 56.439582,7.2284169 56.439582,7.2284169 L 56.127374,24.267584 c 0,0 8.360833,-1.751542 10.384896,-1.524 2.024062,0.227542 3.590396,1.788583 3.590396,1.788583 v -0.0026 0.0026 c 0,0 1.568979,-1.561041 3.593042,-1.788583 2.024062,-0.227542 10.384896,1.524 10.384896,1.524 z"
           style="fill:#f5f5f5;stroke-width:0.264583"
           id="path15" />
        <path
           d="m 67.356291,5.7388127 -1.42875,16.9862503 c 0.224896,-0.0053 0.423333,0 0.582083,0.01852 2.021417,0.224896 3.593042,1.788583 3.593042,1.788583 L 70.057687,7.2284169 c 0,0 -0.343959,-1.3546667 -2.701396,-1.4896042"
           style="opacity:0.26;fill:#94c6d6;stroke-width:0.264583"
           id="path16" />
        <g
           style="opacity:0.5"
           id="g17"
           transform="matrix(0.26458335,0,0,0.26458334,53.169332,0)">
          <path
             d="m 25.31,30.18 c -2.7,0.47 -4.91,0.87 -6.17,1.09 0,0.62 0,1.3 -0.01,2.03 1.11,-0.2 3.37,-0.61 6.18,-1.1 z m 24.34,-3.22 v 1.99 c 5.33,-0.01 8.28,1.33 9.25,1.87 0,-0.83 0.01,-1.57 0.01,-2.22 -1.65,-0.74 -4.67,-1.65 -9.26,-1.64 m -4.34,0.25 c -4.33,0.44 -10.36,1.36 -15.66,2.24 v 2.03 c 5.26,-0.87 11.3,-1.8 15.66,-2.26 z m -10.65,8.63 c -6.46,1 -12.94,2.16 -15.54,2.63 v 2.03 c 2.26,-0.41 8.89,-1.61 15.54,-2.64 z m 12.03,-1.56 c -2.11,0.17 -4.8,0.51 -7.69,0.91 v 2.02 c 2.95,-0.42 5.71,-0.76 7.85,-0.94 7.18,-0.59 10.97,1.17 12.03,1.77 V 35.81 C 56.92,34.94 52.99,33.76 46.69,34.28 M 26.38,44.39 c -3.16,0.54 -5.8,1.01 -7.26,1.28 v 2.03 c 1.31,-0.24 3.99,-0.72 7.26,-1.28 z m 32.5,-1.35 c -1.95,-0.88 -5.89,-2.08 -12.25,-1.55 -4.07,0.33 -10.3,1.26 -15.91,2.18 v 2.03 c 5.66,-0.93 11.98,-1.87 16.08,-2.21 7.3,-0.6 11.1,1.23 12.08,1.8 z m 0.01,7.23 C 56.96,49.39 53,48.16 46.59,48.69 c -0.65,0.05 -1.35,0.12 -2.09,0.2 v 2.01 c 0.81,-0.09 1.56,-0.16 2.26,-0.22 7.44,-0.61 11.24,1.3 12.14,1.84 -0.01,-0.75 -0.01,-1.5 -0.01,-2.25 M 40.15,49.43 c -7.82,1.07 -17.56,2.8 -21.02,3.43 v 2.03 c 3.05,-0.56 13.02,-2.35 21.02,-3.45 z m -11.9,9.04 c -3.93,0.66 -7.33,1.27 -9.12,1.59 v 2.03 c 1.62,-0.3 5.07,-0.92 9.12,-1.6 z M 58.9,57.51 c -1.91,-0.88 -5.89,-2.14 -12.36,-1.61 -3.6,0.3 -8.88,1.05 -13.94,1.86 v 2.02 c 5.11,-0.82 10.48,-1.59 14.1,-1.89 7.63,-0.63 11.44,1.41 12.2,1.87 z m 0.02,14.47 C 57.1,71.11 53.16,69.8 46.66,70.29 v 2.01 c 8.29,-0.67 12.05,1.81 12.26,1.96 z m -32.54,1.2 c -3.08,0.53 -5.7,0.99 -7.23,1.27 v 2.03 c 1.41,-0.26 4.05,-0.73 7.23,-1.28 z m 4.34,-0.72 v 2.03 c 3.88,-0.63 8.05,-1.27 11.6,-1.72 v -2.02 c -3.53,0.44 -7.7,1.07 -11.6,1.71 m 6.95,6.12 c -7.16,1.04 -15.21,2.47 -18.51,3.07 v 2.03 c 2.99,-0.55 11.19,-2.01 18.51,-3.08 z m 21.26,0.64 c -1.81,-0.88 -5.84,-2.25 -12.56,-1.7 -1.27,0.1 -2.75,0.27 -4.36,0.47 V 80 c 1.67,-0.21 3.21,-0.38 4.52,-0.49 8.56,-0.71 12.32,1.95 12.36,1.97 l 0.05,-0.06 c 0,-0.69 0,-1.42 -0.01,-2.2 M 36.18,64.4 c -6.82,1.02 -14.05,2.31 -17.04,2.86 v 2.03 c 2.68,-0.49 10.05,-1.81 17.04,-2.87 z m 22.73,0.34 c -1.88,-0.88 -5.87,-2.18 -12.43,-1.64 -1.68,0.14 -3.73,0.38 -5.95,0.68 v 2.02 c 2.29,-0.31 4.4,-0.56 6.12,-0.7 7.88,-0.65 11.69,1.54 12.27,1.91 -0.01,-0.74 -0.01,-1.5 -0.01,-2.27"
             style="fill:#757575"
             id="path17" />
        </g>
        <g
           style="opacity:0.5"
           id="g18"
           transform="matrix(0.26458335,0,0,0.26458334,53.169332,0)">
          <path
             d="m 88.41,29.71 c 8.28,1.1 19.1,3.06 22.04,3.59 0,-0.74 0,-1.41 -0.01,-2.03 C 107,30.64 96.47,28.76 88.4,27.69 v 2.02 z m -4.35,-2.52 c -0.43,-0.04 -0.84,-0.08 -1.23,-0.11 -6.27,-0.52 -10.19,0.65 -12.16,1.52 0,0.65 0.01,1.4 0.01,2.22 1.12,-0.62 4.91,-2.33 11.99,-1.75 0.44,0.04 0.91,0.08 1.39,0.13 z m 18.3,11.89 a 673,673 0 0 1 8.1,1.43 v -2.03 c -1.57,-0.29 -4.55,-0.82 -8.1,-1.42 z M 98.02,36.33 C 92.61,35.46 86.77,34.6 82.89,34.28 c -6.3,-0.52 -10.23,0.66 -12.2,1.53 v 2.23 c 1.06,-0.6 4.85,-2.36 12.03,-1.77 3.91,0.32 9.84,1.2 15.29,2.08 v -2.02 z m -0.84,7.06 v 2.02 c 5.81,0.93 11.22,1.91 13.28,2.29 V 45.67 C 108.13,45.25 102.82,44.3 97.18,43.39 M 88.4,49.3 c -2.01,-0.26 -3.87,-0.48 -5.41,-0.6 -6.41,-0.53 -10.37,0.7 -12.3,1.58 v 2.25 c 0.9,-0.53 4.71,-2.45 12.14,-1.84 1.58,0.13 3.5,0.35 5.57,0.63 z m 4.35,0.61 v 2.02 c 7.25,1.08 15.06,2.49 17.7,2.97 v -2.03 c -2.98,-0.55 -10.63,-1.91 -17.7,-2.96 m 0.88,7.33 C 89.68,56.64 85.85,56.13 83.05,55.9 76.57,55.37 72.59,56.63 70.69,57.51 v 2.26 c 0.76,-0.47 4.57,-2.5 12.2,-1.87 2.83,0.23 6.74,0.76 10.75,1.37 v -2.03 z m 4.34,0.68 v 2.03 c 5.44,0.88 10.42,1.78 12.47,2.15 v -2.03 c -2.28,-0.42 -7.18,-1.3 -12.47,-2.15 m 7.07,8.38 v 2.03 c 2.36,0.41 4.29,0.76 5.39,0.96 v -2.03 c -1.2,-0.22 -3.1,-0.56 -5.39,-0.96 M 89.29,71.01 C 87,70.7 84.88,70.45 83.16,70.31 76.52,69.76 72.51,71.1 70.67,71.98 v 2.28 c 0.21,-0.15 3.99,-2.65 12.34,-1.96 1.76,0.14 3.94,0.4 6.3,0.72 v -2.01 z m 4.34,0.62 v 2.02 c 6.88,1.04 14.1,2.34 16.8,2.83 v -2.03 c -3,-0.54 -10.08,-1.8 -16.8,-2.82 m 3.55,7.75 C 92.11,78.57 86.81,77.81 83.21,77.51 76.48,76.96 72.46,78.34 70.65,79.21 v 2.2 l 0.05,0.06 c 0.03,-0.02 3.79,-2.68 12.36,-1.97 3.63,0.3 9.02,1.08 14.14,1.9 v -2.02 z m 4.35,0.72 v 2.03 c 3.89,0.65 7.21,1.25 8.89,1.56 v -2.03 c -1.83,-0.34 -5.11,-0.93 -8.89,-1.56 M 82.93,63.09 c -6.46,-0.51 -10.4,0.78 -12.26,1.65 v 2.27 c 0.58,-0.37 4.38,-2.56 12.26,-1.91 z m 4.35,0.46 v 2.01 c 4.12,0.52 9.07,1.3 13.42,2.02 v -2.03 c -4.38,-0.72 -9.33,-1.49 -13.42,-2 M 79.72,41.37 c -4.48,0.03 -7.43,0.95 -9.02,1.67 v 2.24 c 0.84,-0.48 3.71,-1.87 9.02,-1.92 z m 4.34,0.22 v 2.01 c 2.49,0.25 5.58,0.67 8.77,1.14 v -2.02 c -3.2,-0.48 -6.28,-0.89 -8.77,-1.13"
             style="fill:#757575"
             id="path18" />
        </g>
        <path
           d="m 71.997083,26.04823 c -0.296334,-0.02646 -0.568855,0.156104 -0.664105,0.439208 -0.142875,0.431271 -0.47625,0.994834 -1.230312,0.994834 -0.762,0 -1.098021,-0.566209 -1.243542,-0.99748 a 0.63896878,0.63896877 0 0 0 -0.656167,-0.433916 l -0.103187,0.0079 0.0026,0.08467 a 1.9976043,1.9976042 0 0 0 1.997604,1.997604 1.9976043,1.9976042 0 0 0 1.997604,-1.997604 c 0,-0.02646 -0.0026,-0.08731 -0.0026,-0.08731 z"
           style="fill:#616161;stroke-width:0.264583"
           id="path19" />
      </g>
    </g>
  </g>
</svg>
